<?xml version="1.0" encoding="UTF-8"?>
<svg version="1.1" xmlns="http://www.w3.org/2000/svg" width="262" height="275">
<path d="M0 0 C86.46 0 172.92 0 262 0 C262 90.75 262 181.5 262 275 C175.54 275 89.08 275 0 275 C0 184.25 0 93.5 0 0 Z " fill="#9B0101" transform="translate(0,0)"/>
<path d="M0 0 C2.76783566 2.18659017 5.38512401 4.46340978 7.984375 6.84765625 C8.4685791 7.28416504 8.9527832 7.72067383 9.45166016 8.17041016 C23.66143833 21.1029049 34.80134317 38.24971849 39.984375 56.84765625 C39.984375 57.83765625 39.984375 58.82765625 39.984375 59.84765625 C31.074375 59.84765625 22.164375 59.84765625 12.984375 59.84765625 C11.334375 55.88765625 9.684375 51.92765625 7.984375 47.84765625 C5.27013637 43.29245577 2.16429819 39.08374783 -1.015625 34.84765625 C-1.49644531 34.17992187 -1.97726563 33.5121875 -2.47265625 32.82421875 C-12.88447176 19.42411783 -32.09712323 8.9559331 -48.58203125 6.265625 C-72.43586711 3.62514411 -95.02196446 6.74907518 -114.390625 21.72265625 C-115.95498301 23.07178379 -117.49670804 24.44756612 -119.015625 25.84765625 C-119.85609375 26.60820313 -120.6965625 27.36875 -121.5625 28.15234375 C-136.95734498 42.75412096 -145.87199037 62.53553626 -146.43945312 83.74829102 C-146.55644099 107.06021302 -139.07460611 128.31575213 -122.6953125 145.1640625 C-121.81101562 146.04964844 -120.92671875 146.93523437 -120.015625 147.84765625 C-119.35820313 148.51667969 -118.70078125 149.18570313 -118.0234375 149.875 C-101.25179348 165.74687771 -79.68912 169.42331581 -57.46191406 168.93212891 C-36.5289467 168.20929391 -16.65413371 157.39885775 -2.015625 142.84765625 C5.63956574 134.36806036 9.78728171 125.24184284 14.984375 114.84765625 C-12.075625 114.84765625 -39.135625 114.84765625 -67.015625 114.84765625 C-67.015625 107.58765625 -67.015625 100.32765625 -67.015625 92.84765625 C-30.385625 92.84765625 6.244375 92.84765625 43.984375 92.84765625 C40.54791377 123.7758073 29.42962199 151.13297228 4.734375 171.16015625 C-6.74578323 180.13756616 -19.07903978 186.59808525 -33.015625 190.84765625 C-34.01722656 191.15445313 -35.01882812 191.46125 -36.05078125 191.77734375 C-62.59972318 199.44622656 -91.29876782 195.62779234 -115.578125 183.09765625 C-139.7039805 169.26549909 -155.08699625 150.49314747 -165.71875 124.9140625 C-166.73121143 122.52014013 -167.85321866 120.17246892 -169.015625 117.84765625 C-174.955625 119.49765625 -180.895625 121.14765625 -187.015625 122.84765625 C-187.015625 99.41765625 -187.015625 75.98765625 -187.015625 51.84765625 C-181.49441251 52.53780781 -177.21384056 53.34817099 -172.015625 54.84765625 C-170.695625 54.84765625 -169.375625 54.84765625 -168.015625 54.84765625 C-167.6753125 53.92726563 -167.335 53.006875 -166.984375 52.05859375 C-156.18391237 23.55600203 -136.49152012 1.02667954 -108.44921875 -11.78125 C-99.8596559 -15.43074249 -91.09608857 -18.01898183 -82.015625 -20.15234375 C-81.24863281 -20.34699219 -80.48164062 -20.54164062 -79.69140625 -20.7421875 C-51.77003836 -25.02210521 -22.68502689 -16.19099717 0 0 Z " fill="#FEFCFC" transform="translate(187.015625,55.15234375)"/>
<path d="M0 0 C86.46 0 172.92 0 262 0 C262 90.75 262 181.5 262 275 C224.38 275 186.76 275 148 275 C151.4123095 273.29384525 154.25908495 272.42769772 157.9387207 271.60668945 C181.06719628 266.30448108 200.98770117 254.28775459 218 238 C218.74636719 237.31679687 219.49273437 236.63359375 220.26171875 235.9296875 C237.03008753 220.06850796 247.83128018 198.42405127 253.75 176.375 C253.94875732 175.63612549 254.14751465 174.89725098 254.35229492 174.13598633 C263.1797952 139.45787229 257.34018914 103.96353315 240 73 C239.62359375 72.32694824 239.2471875 71.65389648 238.859375 70.96044922 C233.04275405 60.74500867 226.24688727 52.33928936 218 44 C217.34773437 43.27554688 216.69546875 42.55109375 216.0234375 41.8046875 C202.90583639 27.53135061 182.52783203 16.73426296 164.04785156 11.58251953 C162.63705167 11.18121188 161.23284614 10.75622016 159.83496094 10.31201172 C127.93750356 0.21001183 91.05785434 4.79770234 61.55957031 19.9675293 C51.96509372 25.05840208 43.28986813 30.98246923 35 38 C34.1646875 38.69996094 33.329375 39.39992187 32.46875 40.12109375 C19.14679769 51.65445061 8.19924655 66.8964222 1 83 C0.67 83 0.34 83 0 83 C0 55.61 0 28.22 0 0 Z " fill="#FEFDFD" transform="translate(0,0)"/>
<path d="M0 0 C2.26437033 3.01916044 3.96440412 5.74361401 5.65014648 9.07543945 C11.74747235 21.11280979 19.77194861 31.18658714 29 41 C29.5259375 41.59039062 30.051875 42.18078125 30.59375 42.7890625 C48.10282548 61.63811825 73.39091735 72.50257024 98 78 C98 78.33 98 78.66 98 79 C65.66 79 33.32 79 0 79 C0 52.93 0 26.86 0 0 Z " fill="#FEFDFD" transform="translate(0,196)"/>
</svg>
